<?xml version="1.0" encoding="UTF-8" standalone="no" ?>
<!DOCTYPE svg PUBLIC "-//W3C//DTD SVG 1.1//EN" "http://www.w3.org/Graphics/SVG/1.1/DTD/svg11.dtd">
<svg xmlns="http://www.w3.org/2000/svg" xmlns:xlink="http://www.w3.org/1999/xlink" version="1.1" width="350" height="350" viewBox="0 0 350 350" xml:space="preserve">
<desc>Created with Fabric.js 1.7.22</desc>
<defs>
</defs>
<g id="icon" style="stroke: none; stroke-width: 1; stroke-dasharray: none; stroke-linecap: butt; stroke-linejoin: miter; stroke-miterlimit: 10; fill: none; fill-rule: nonzero; opacity: 1;" transform="translate(-1.9444444444444287 -1.9444444444444287) scale(3.89 3.89)" >
	<path d="M 83.974 78.678 H 6.026 C 3.25 78.678 1 76.428 1 73.652 v -0.909 h 88 v 0.909 C 89 76.428 86.75 78.678 83.974 78.678 z" style="stroke: none; stroke-width: 1; stroke-dasharray: none; stroke-linecap: butt; stroke-linejoin: miter; stroke-miterlimit: 10; fill: rgb(238,240,245); fill-rule: nonzero; opacity: 1;" transform=" matrix(1 0 0 1 0 0) " stroke-linecap="round" />
	<path d="M 79.004 21.322 c 2.936 0 5.317 2.381 5.317 5.317 v 46.104 H 5.679 V 26.639 c 0 -2.936 2.381 -5.317 5.317 -5.317 H 79.004 z" style="stroke: none; stroke-width: 1; stroke-dasharray: none; stroke-linecap: butt; stroke-linejoin: miter; stroke-miterlimit: 10; fill: rgb(238,240,245); fill-rule: nonzero; opacity: 1;" transform=" matrix(1 0 0 1 0 0) " stroke-linecap="round" />
	<path d="M 78.888 66.743 V 28.965 c 0 -1.019 -0.826 -1.846 -1.846 -1.846 H 52.068 H 37.932 H 12.958 c -1.02 0 -1.846 0.826 -1.846 1.846 v 37.778 v 6 h 67.776 V 66.743 z" style="stroke: none; stroke-width: 1; stroke-dasharray: none; stroke-linecap: butt; stroke-linejoin: miter; stroke-miterlimit: 10; fill: rgb(179,218,254); fill-rule: nonzero; opacity: 1;" transform=" matrix(1 0 0 1 0 0) " stroke-linecap="round" />
	<rect x="40.16" y="72.74" rx="0" ry="0" width="9.67" height="5.93" style="stroke: none; stroke-width: 1; stroke-dasharray: none; stroke-linecap: butt; stroke-linejoin: miter; stroke-miterlimit: 10; fill: rgb(215,216,219); fill-rule: nonzero; opacity: 1;" transform=" matrix(1 0 0 1 0 0) "/>
	<path d="M 67.252 64.246 H 28.093 c -3.313 0 -5.999 -2.686 -5.999 -5.999 V 16.974 l 27.161 0 c 0 -3.313 2.686 -5.999 5.999 -5.999 l 0 0 c 3.313 0 5.999 2.686 5.999 5.999 v 41.273 C 61.253 61.56 63.939 64.246 67.252 64.246" style="stroke: none; stroke-width: 1; stroke-dasharray: none; stroke-linecap: butt; stroke-linejoin: miter; stroke-miterlimit: 10; fill: rgb(249,208,112); fill-rule: nonzero; opacity: 1;" transform=" matrix(1 0 0 1 0 0) " stroke-linecap="round" />
	<path d="M 55.254 10.975 c -3.313 0 -5.999 2.686 -5.999 5.999 H 14.749 c 0 -3.313 2.686 -5.999 5.999 -5.999 H 55.254" style="stroke: none; stroke-width: 1; stroke-dasharray: none; stroke-linecap: butt; stroke-linejoin: miter; stroke-miterlimit: 10; fill: rgb(238,240,245); fill-rule: nonzero; opacity: 1;" transform=" matrix(1 0 0 1 0 0) " stroke-linecap="round" />
	<path d="M 61.253 58.247 c 0 3.313 2.686 5.999 5.999 5.999 c 3.313 0 5.999 -2.686 5.999 -5.999 H 61.253" style="stroke: none; stroke-width: 1; stroke-dasharray: none; stroke-linecap: butt; stroke-linejoin: miter; stroke-miterlimit: 10; fill: rgb(238,240,245); fill-rule: nonzero; opacity: 1;" transform=" matrix(1 0 0 1 0 0) " stroke-linecap="round" />
	<path d="M 89 72.091 h -3.679 V 26.986 c 0 -3.483 -2.834 -6.317 -6.317 -6.317 H 67.253 c -0.553 0 -1 0.448 -1 1 s 0.447 1 1 1 h 11.751 c 2.381 0 4.317 1.937 4.317 4.317 v 45.104 H 50.836 H 39.164 H 6.679 V 26.986 c 0 -2.38 1.937 -4.317 4.325 -4.317 l 5.098 -0.04 c 0.552 -0.004 0.997 -0.456 0.992 -1.008 s -0.446 -1.005 -1.008 -0.992 l -5.09 0.04 c -3.483 0 -6.317 2.834 -6.317 6.317 v 45.104 H 1 c -0.552 0 -1 0.447 -1 1 v 0.908 c 0 3.323 2.703 6.026 6.026 6.026 h 33.138 h 11.672 h 33.138 c 3.323 0 6.026 -2.703 6.026 -6.026 v -0.908 C 90 72.538 89.553 72.091 89 72.091 z M 6.026 78.025 c -2.189 0 -3.976 -1.757 -4.025 -3.935 h 2.678 h 34.485 v 3.935 H 6.026 z M 41.164 78.025 v -3.935 h 7.672 v 3.935 H 41.164 z M 83.974 78.025 H 50.836 v -3.935 h 34.485 h 2.678 C 87.95 76.269 86.163 78.025 83.974 78.025 z" style="stroke: none; stroke-width: 1; stroke-dasharray: none; stroke-linecap: butt; stroke-linejoin: miter; stroke-miterlimit: 10; fill: rgb(7,42,56); fill-rule: nonzero; opacity: 1;" transform=" matrix(1 0 0 1 0 0) " stroke-linecap="round" />
	<polygon points="46.55,35.73 46.55,46.36 40.98,43.76 41.05,43.76 35.48,46.36 35.48,35.73 " style="stroke: none; stroke-width: 1; stroke-dasharray: none; stroke-linecap: butt; stroke-linejoin: miter; stroke-miterlimit: 10; fill: rgb(255,255,255); fill-rule: nonzero; opacity: 1;" transform="  matrix(1 0 0 1 0 0) "/>
	<path d="M 78.888 68.091 c -0.553 0 -1 -0.447 -1 -1 V 29.313 c 0 -0.467 -0.379 -0.846 -0.846 -0.846 h -9.789 c -0.553 0 -1 -0.448 -1 -1 s 0.447 -1 1 -1 h 9.789 c 1.569 0 2.846 1.277 2.846 2.846 v 37.778 C 79.888 67.644 79.44 68.091 78.888 68.091 z" style="stroke: none; stroke-width: 1; stroke-dasharray: none; stroke-linecap: butt; stroke-linejoin: miter; stroke-miterlimit: 10; fill: rgb(7,42,56); fill-rule: nonzero; opacity: 1;" transform=" matrix(1 0 0 1 0 0) " stroke-linecap="round" />
	<path d="M 11.112 68.091 c -0.552 0 -1 -0.447 -1 -1 V 29.313 c 0 -1.569 1.277 -2.846 2.846 -2.846 h 3.136 c 0.552 0 1 0.448 1 1 s -0.448 1 -1 1 h -3.136 c -0.467 0 -0.846 0.379 -0.846 0.846 v 37.778 C 12.112 67.644 11.664 68.091 11.112 68.091 z" style="stroke: none; stroke-width: 1; stroke-dasharray: none; stroke-linecap: butt; stroke-linejoin: miter; stroke-miterlimit: 10; fill: rgb(7,42,56); fill-rule: nonzero; opacity: 1;" transform=" matrix(1 0 0 1 0 0) " stroke-linecap="round" />
	<path d="M 73.251 57.247 H 62.253 V 16.974 c 0 -3.859 -3.14 -6.999 -6.999 -6.999 H 20.748 c -3.859 0 -6.999 3.14 -6.999 6.999 c 0 0.552 0.448 1 1 1 h 6.345 v 40.273 c 0 3.859 3.14 6.999 6.999 6.999 h 39.159 c 3.859 0 6.999 -3.14 6.999 -6.999 C 74.251 57.694 73.804 57.247 73.251 57.247 z M 20.748 11.975 H 50.36 c -1.073 1.051 -1.811 2.443 -2.034 3.999 H 15.85 C 16.314 13.695 18.334 11.975 20.748 11.975 z M 28.093 63.246 c -2.756 0 -4.999 -2.242 -4.999 -4.999 V 17.974 h 26.161 c 0.553 0 1 -0.448 1 -1 c 0 -2.756 2.242 -4.999 4.999 -4.999 s 4.999 2.243 4.999 4.999 v 41.273 c 0 1.958 0.81 3.728 2.11 4.999 H 28.093 z M 67.252 63.246 c -0.325 0 -0.642 -0.036 -0.95 -0.096 c -0.102 -0.02 -0.197 -0.055 -0.297 -0.08 c -0.202 -0.052 -0.402 -0.108 -0.593 -0.184 c -0.111 -0.044 -0.215 -0.099 -0.322 -0.151 c -0.168 -0.081 -0.334 -0.168 -0.491 -0.267 c -0.104 -0.066 -0.204 -0.137 -0.303 -0.211 c -0.146 -0.108 -0.285 -0.222 -0.418 -0.345 c -0.091 -0.084 -0.18 -0.169 -0.265 -0.259 c -0.125 -0.134 -0.24 -0.277 -0.35 -0.424 c -0.072 -0.095 -0.146 -0.189 -0.211 -0.289 c -0.108 -0.167 -0.198 -0.346 -0.286 -0.526 c -0.046 -0.094 -0.099 -0.183 -0.139 -0.281 c -0.109 -0.267 -0.197 -0.545 -0.259 -0.832 c -0.004 -0.018 -0.012 -0.034 -0.015 -0.052 c 0 -0.001 0 -0.002 0 -0.003 h 9.796 C 71.686 61.526 69.666 63.246 67.252 63.246 z" style="stroke: none; stroke-width: 1; stroke-dasharray: none; stroke-linecap: butt; stroke-linejoin: miter; stroke-miterlimit: 10; fill: rgb(7,42,56); fill-rule: nonzero; opacity: 1;" transform=" matrix(1 0 0 1 0 0) " stroke-linecap="round" />
	<path d="M 34.064 29.014 L 34.064 29.014 c -1.257 -1.717 0.124 -4.109 2.24 -3.879 l 0 0 c 1.061 0.115 2.074 -0.47 2.504 -1.446 l 0 0 c 0.858 -1.947 3.621 -1.947 4.479 0 l 0 0 c 0.43 0.976 1.444 1.561 2.504 1.446 h 0 c 2.115 -0.23 3.496 2.162 2.24 3.879 l 0 0 c -0.63 0.861 -0.63 2.031 0 2.891 l 0 0 c 1.257 1.717 -0.124 4.109 -2.24 3.879 h 0 c -1.061 -0.115 -2.074 0.47 -2.504 1.446 l 0 0 c -0.858 1.947 -3.621 1.947 -4.479 0 v 0 c -0.43 -0.976 -1.444 -1.561 -2.504 -1.446 h 0 c -2.115 0.23 -3.496 -2.162 -2.24 -3.879 l 0 0 C 34.694 31.045 34.694 29.875 34.064 29.014 z" style="stroke: none; stroke-width: 1; stroke-dasharray: none; stroke-linecap: butt; stroke-linejoin: miter; stroke-miterlimit: 10; fill: rgb(240,114,129); fill-rule: nonzero; opacity: 1;" transform=" matrix(1 0 0 1 0 0) " stroke-linecap="round" />
	<circle cx="41.044" cy="30.464" r="3.224" style="stroke: none; stroke-width: 1; stroke-dasharray: none; stroke-linecap: butt; stroke-linejoin: miter; stroke-miterlimit: 10; fill: rgb(255,255,255); fill-rule: nonzero; opacity: 1;" transform="  matrix(1 0 0 1 0 0) "/>
	<path d="M 41.047 34.684 c -2.329 0 -4.224 -1.895 -4.224 -4.224 s 1.895 -4.224 4.224 -4.224 c 2.33 0 4.225 1.895 4.225 4.224 S 43.376 34.684 41.047 34.684 z M 41.047 28.236 c -1.227 0 -2.224 0.998 -2.224 2.224 s 0.998 2.224 2.224 2.224 s 2.225 -0.998 2.225 -2.224 S 42.273 28.236 41.047 28.236 z" style="stroke: none; stroke-width: 1; stroke-dasharray: none; stroke-linecap: butt; stroke-linejoin: miter; stroke-miterlimit: 10; fill: rgb(7,42,56); fill-rule: nonzero; opacity: 1;" transform=" matrix(1 0 0 1 0 0) " stroke-linecap="round" />
	<path d="M 52.947 53.218 H 29.146 c -0.552 0 -1 -0.447 -1 -1 s 0.448 -1 1 -1 h 23.801 c 0.553 0 1 0.447 1 1 S 53.5 53.218 52.947 53.218 z" style="stroke: none; stroke-width: 1; stroke-dasharray: none; stroke-linecap: butt; stroke-linejoin: miter; stroke-miterlimit: 10; fill: rgb(7,42,56); fill-rule: nonzero; opacity: 1;" transform=" matrix(1 0 0 1 0 0) " stroke-linecap="round" />
	<path d="M 52.947 57.866 H 44 c -0.552 0 -1 -0.447 -1 -1 s 0.448 -1 1 -1 h 8.947 c 0.553 0 1 0.447 1 1 S 53.5 57.866 52.947 57.866 z" style="stroke: none; stroke-width: 1; stroke-dasharray: none; stroke-linecap: butt; stroke-linejoin: miter; stroke-miterlimit: 10; fill: rgb(7,42,56); fill-rule: nonzero; opacity: 1;" transform=" matrix(1 0 0 1 0 0) " stroke-linecap="round" />
	<path d="M 48.837 29.605 c 0.819 -1.119 0.897 -2.56 0.204 -3.76 c -0.692 -1.201 -1.984 -1.856 -3.358 -1.704 c -0.625 0.072 -1.225 -0.275 -1.481 -0.855 c -0.56 -1.269 -1.768 -2.057 -3.155 -2.057 c -1.386 0 -2.595 0.788 -3.154 2.056 c -0.256 0.581 -0.852 0.927 -1.481 0.855 c -1.376 -0.148 -2.666 0.503 -3.358 1.704 c -0.693 1.201 -0.615 2.642 0.204 3.76 h 0 c 0.375 0.511 0.375 1.199 0 1.71 c -0.819 1.119 -0.897 2.56 -0.204 3.76 c 0.347 0.601 0.843 1.065 1.425 1.359 v 9.926 c 0 0.342 0.175 0.66 0.463 0.844 c 0.163 0.104 0.35 0.156 0.537 0.156 c 0.145 0 0.289 -0.031 0.424 -0.095 l 5.113 -2.392 l 5.113 2.392 c 0.135 0.063 0.279 0.095 0.424 0.095 c 0.188 0 0.374 -0.053 0.537 -0.156 c 0.288 -0.184 0.463 -0.502 0.463 -0.844 v -9.9 c 0.609 -0.292 1.131 -0.763 1.489 -1.385 c 0.693 -1.201 0.615 -2.642 -0.204 -3.76 C 48.463 30.804 48.463 30.116 48.837 29.605 z M 34.871 28.423 c -0.349 -0.477 -0.381 -1.067 -0.086 -1.579 c 0.295 -0.512 0.818 -0.783 1.411 -0.715 c 1.499 0.162 2.917 -0.655 3.527 -2.037 c 0.238 -0.541 0.733 -0.863 1.324 -0.863 c 0.591 0 1.086 0.323 1.325 0.863 c 0.608 1.38 2.019 2.196 3.527 2.037 c 0.579 -0.066 1.115 0.203 1.411 0.715 c 0.295 0.512 0.263 1.102 -0.086 1.579 c -0.892 1.218 -0.892 2.854 0 4.073 c 0.349 0.477 0.381 1.067 0.086 1.579 c -0.296 0.513 -0.832 0.779 -1.411 0.715 c -1.503 -0.164 -2.918 0.655 -3.527 2.037 c -0.238 0.541 -0.733 0.863 -1.325 0.863 c -0.591 0 -1.086 -0.323 -1.324 -0.864 c -0.558 -1.264 -1.792 -2.057 -3.148 -2.057 c -0.125 0 -0.252 0.007 -0.378 0.021 c -0.594 0.063 -1.115 -0.204 -1.411 -0.715 s -0.263 -1.102 0.085 -1.579 C 35.763 31.278 35.763 29.642 34.871 28.423 z M 41.578 42.929 c -0.159 -0.101 -0.336 -0.165 -0.526 -0.167 c -0.014 -0.001 -0.027 -0.006 -0.04 -0.006 c -0.004 0 -0.008 0.002 -0.012 0.002 c -0.2 -0.003 -0.388 0.065 -0.554 0.173 l -3.968 1.857 v -8.006 c 0.604 -0.036 1.168 0.293 1.415 0.852 c 0.56 1.269 1.768 2.057 3.154 2.057 c 1.387 0 2.595 -0.788 3.155 -2.057 c 0.237 -0.539 0.771 -0.861 1.35 -0.849 v 8.003 L 41.578 42.929 z" style="stroke: none; stroke-width: 1; stroke-dasharray: none; stroke-linecap: butt; stroke-linejoin: miter; stroke-miterlimit: 10; fill: rgb(7,42,56); fill-rule: nonzero; opacity: 1;" transform=" matrix(1 0 0 1 0 0) " stroke-linecap="round" />
</g>
</svg>